<svg width="439" height="318" viewBox="0 0 439 318" fill="none" xmlns="http://www.w3.org/2000/svg">
<path d="M373.318 128.729L373.391 128.833C374.927 131.26 374.573 134.411 372.547 136.448L303.125 205.875C300.943 208.062 302.49 211.791 305.578 211.791H401.271L401.51 211.552C450.255 162.818 451.188 82.1144 401.531 34.3227C353.406 -11.995 276.839 -11.4325 229.401 35.9998L152.693 112.698L75.6406 189.76C72.8073 192.594 68.0729 192.068 65.9323 188.682L65.8594 188.578C64.3229 186.151 64.6771 182.989 66.7031 180.953L136.125 111.536C138.307 109.349 136.766 105.614 133.672 105.614H37.9688L36 107.578C-12 155.578 -12 233.411 36 281.406C84.0052 329.411 161.828 329.411 209.833 281.406L286.536 204.703L363.599 127.651C366.432 124.818 371.167 125.344 373.318 128.729ZM232.641 154.547L136.526 250.656C134.479 252.698 131.281 253.099 128.849 251.552C128.813 251.526 128.776 251.51 128.74 251.484C125.365 249.344 124.802 244.63 127.63 241.797L206.594 162.838L302.703 66.7342C304.745 64.6925 307.943 64.2915 310.38 65.8383C310.411 65.8644 310.448 65.8852 310.484 65.9113C313.859 68.0519 314.422 72.7602 311.589 75.5936L232.641 154.547Z" fill="url(#paint0_linear_47_1422)"/>
<defs>
<linearGradient id="paint0_linear_47_1422" x1="61.3704" y1="301.823" x2="434.87" y2="30.8227" gradientUnits="userSpaceOnUse">
<stop stop-color="white"/>
<stop offset="0.995" stop-color="#155DFC"/>
</linearGradient>
</defs>
</svg>
